<mxfile host="app.diagrams.net" modified="2024-01-24T15:30:32.799Z" agent="Mozilla/5.0 (Macintosh; Intel Mac OS X 10_15_7) AppleWebKit/537.36 (KHTML, like Gecko) Chrome/120.0.0.0 Safari/537.36" etag="ArOgNdYgjyhbmwMvt869" version="22.1.21" type="device">
  <diagram name="Page-1" id="RVt12QEgG98xqtKB_YTy">
    <mxGraphModel dx="941" dy="751" grid="1" gridSize="10" guides="1" tooltips="1" connect="1" arrows="1" fold="1" page="1" pageScale="1" pageWidth="850" pageHeight="1100" math="0" shadow="0">
      <root>
        <mxCell id="0" />
        <mxCell id="1" parent="0" />
        <mxCell id="_n3MHpNf56_mFR_C-PWD-1" value="Install elevator brackets" style="ellipse;whiteSpace=wrap;html=1;" parent="1" vertex="1">
          <mxGeometry x="440" y="190" width="240" height="60" as="geometry" />
        </mxCell>
        <mxCell id="_n3MHpNf56_mFR_C-PWD-2" value="Install elevator entrances" style="ellipse;whiteSpace=wrap;html=1;" parent="1" vertex="1">
          <mxGeometry x="440" y="290" width="240" height="60" as="geometry" />
        </mxCell>
        <mxCell id="_n3MHpNf56_mFR_C-PWD-3" value="Install elevator cab" style="ellipse;whiteSpace=wrap;html=1;" parent="1" vertex="1">
          <mxGeometry x="440" y="410" width="240" height="60" as="geometry" />
        </mxCell>
        <mxCell id="_n3MHpNf56_mFR_C-PWD-16" style="edgeStyle=orthogonalEdgeStyle;rounded=0;orthogonalLoop=1;jettySize=auto;html=1;dashed=1;dashPattern=8 8;" parent="1" source="_n3MHpNf56_mFR_C-PWD-4" edge="1">
          <mxGeometry relative="1" as="geometry">
            <mxPoint x="130" y="360" as="targetPoint" />
          </mxGeometry>
        </mxCell>
        <mxCell id="_n3MHpNf56_mFR_C-PWD-18" value="&amp;lt;&amp;lt;extends&amp;gt;&amp;gt;" style="edgeLabel;html=1;align=center;verticalAlign=middle;resizable=0;points=[];" parent="_n3MHpNf56_mFR_C-PWD-16" vertex="1" connectable="0">
          <mxGeometry x="-0.2397" relative="1" as="geometry">
            <mxPoint as="offset" />
          </mxGeometry>
        </mxCell>
        <mxCell id="_n3MHpNf56_mFR_C-PWD-4" value="With safety and functional tests" style="ellipse;whiteSpace=wrap;html=1;" parent="1" vertex="1">
          <mxGeometry x="10" y="420" width="240" height="60" as="geometry" />
        </mxCell>
        <mxCell id="_n3MHpNf56_mFR_C-PWD-20" style="edgeStyle=orthogonalEdgeStyle;rounded=0;orthogonalLoop=1;jettySize=auto;html=1;entryX=0.5;entryY=1;entryDx=0;entryDy=0;endArrow=none;endFill=0;" parent="1" source="_n3MHpNf56_mFR_C-PWD-5" target="_n3MHpNf56_mFR_C-PWD-4" edge="1">
          <mxGeometry relative="1" as="geometry">
            <Array as="points">
              <mxPoint x="130" y="520" />
              <mxPoint x="130" y="520" />
            </Array>
          </mxGeometry>
        </mxCell>
        <mxCell id="_n3MHpNf56_mFR_C-PWD-5" value="Elevator installers" style="shape=umlActor;verticalLabelPosition=bottom;verticalAlign=top;html=1;outlineConnect=0;" parent="1" vertex="1">
          <mxGeometry x="115" y="570" width="30" height="60" as="geometry" />
        </mxCell>
        <mxCell id="_n3MHpNf56_mFR_C-PWD-9" style="rounded=0;orthogonalLoop=1;jettySize=auto;html=1;exitX=1;exitY=0;exitDx=0;exitDy=0;entryX=0;entryY=0.5;entryDx=0;entryDy=0;dashed=1;dashPattern=8 8;" parent="1" source="_n3MHpNf56_mFR_C-PWD-8" target="_n3MHpNf56_mFR_C-PWD-1" edge="1">
          <mxGeometry relative="1" as="geometry" />
        </mxCell>
        <mxCell id="_n3MHpNf56_mFR_C-PWD-11" value="&amp;lt;&amp;lt;include&amp;gt;&amp;gt;" style="edgeLabel;html=1;align=center;verticalAlign=middle;resizable=0;points=[];" parent="_n3MHpNf56_mFR_C-PWD-9" vertex="1" connectable="0">
          <mxGeometry x="-0.0585" y="-2" relative="1" as="geometry">
            <mxPoint as="offset" />
          </mxGeometry>
        </mxCell>
        <mxCell id="_n3MHpNf56_mFR_C-PWD-12" style="rounded=0;orthogonalLoop=1;jettySize=auto;html=1;exitX=1;exitY=0.5;exitDx=0;exitDy=0;entryX=0;entryY=0.5;entryDx=0;entryDy=0;endArrow=classic;endFill=1;dashed=1;dashPattern=8 8;" parent="1" source="_n3MHpNf56_mFR_C-PWD-8" target="_n3MHpNf56_mFR_C-PWD-2" edge="1">
          <mxGeometry relative="1" as="geometry" />
        </mxCell>
        <mxCell id="_n3MHpNf56_mFR_C-PWD-13" value="&amp;lt;&amp;lt;include&amp;gt;&amp;gt;" style="edgeLabel;html=1;align=center;verticalAlign=middle;resizable=0;points=[];" parent="_n3MHpNf56_mFR_C-PWD-12" vertex="1" connectable="0">
          <mxGeometry x="0.0349" y="-2" relative="1" as="geometry">
            <mxPoint as="offset" />
          </mxGeometry>
        </mxCell>
        <mxCell id="_n3MHpNf56_mFR_C-PWD-14" style="rounded=0;orthogonalLoop=1;jettySize=auto;html=1;exitX=1;exitY=1;exitDx=0;exitDy=0;entryX=0;entryY=0.5;entryDx=0;entryDy=0;dashed=1;dashPattern=8 8;" parent="1" source="_n3MHpNf56_mFR_C-PWD-8" target="_n3MHpNf56_mFR_C-PWD-3" edge="1">
          <mxGeometry relative="1" as="geometry" />
        </mxCell>
        <mxCell id="_n3MHpNf56_mFR_C-PWD-15" value="&amp;lt;&amp;lt;include&amp;gt;&amp;gt;" style="edgeLabel;html=1;align=center;verticalAlign=middle;resizable=0;points=[];" parent="_n3MHpNf56_mFR_C-PWD-14" vertex="1" connectable="0">
          <mxGeometry x="0.0106" y="3" relative="1" as="geometry">
            <mxPoint y="-1" as="offset" />
          </mxGeometry>
        </mxCell>
        <mxCell id="_n3MHpNf56_mFR_C-PWD-8" value="Install elevators" style="ellipse;whiteSpace=wrap;html=1;" parent="1" vertex="1">
          <mxGeometry x="20" y="290" width="240" height="60" as="geometry" />
        </mxCell>
        <mxCell id="_n3MHpNf56_mFR_C-PWD-22" style="rounded=0;orthogonalLoop=1;jettySize=auto;html=1;exitX=0;exitY=0.3333333333333333;exitDx=0;exitDy=0;exitPerimeter=0;endArrow=none;endFill=0;entryX=1;entryY=1;entryDx=0;entryDy=0;" parent="1" source="_n3MHpNf56_mFR_C-PWD-21" target="_n3MHpNf56_mFR_C-PWD-4" edge="1">
          <mxGeometry relative="1" as="geometry">
            <mxPoint x="230" y="480" as="targetPoint" />
          </mxGeometry>
        </mxCell>
        <mxCell id="_n3MHpNf56_mFR_C-PWD-21" value="Municipality" style="shape=umlActor;verticalLabelPosition=bottom;verticalAlign=top;html=1;outlineConnect=0;" parent="1" vertex="1">
          <mxGeometry x="230" y="560" width="30" height="60" as="geometry" />
        </mxCell>
        <mxCell id="72BMudRyKS175-ddiAjg-4" style="rounded=0;orthogonalLoop=1;jettySize=auto;html=1;exitX=0;exitY=0.3333333333333333;exitDx=0;exitDy=0;exitPerimeter=0;entryX=1;entryY=0.5;entryDx=0;entryDy=0;endArrow=none;endFill=0;" edge="1" parent="1" source="72BMudRyKS175-ddiAjg-1" target="_n3MHpNf56_mFR_C-PWD-4">
          <mxGeometry relative="1" as="geometry" />
        </mxCell>
        <mxCell id="72BMudRyKS175-ddiAjg-1" value="Fire dept." style="shape=umlActor;verticalLabelPosition=bottom;verticalAlign=top;html=1;outlineConnect=0;" vertex="1" parent="1">
          <mxGeometry x="320" y="480" width="30" height="60" as="geometry" />
        </mxCell>
      </root>
    </mxGraphModel>
  </diagram>
</mxfile>
